<svg width="96" height="96" viewBox="0 0 96 96" fill="none" xmlns="http://www.w3.org/2000/svg">
<path d="M0 10C0 4.47715 4.47715 0 10 0H86C91.5228 0 96 4.47715 96 10V86C96 91.5228 91.5228 96 86 96H10C4.47715 96 0 91.5228 0 86V10Z" fill="#000E24"/>
<circle r="35" transform="matrix(1 0 0 -1 48 48)" fill="#86A8FF"/>
<circle r="25" transform="matrix(1 0 0 -1 48 48)" fill="white"/>
<path d="M47.3244 31.8541C48.0254 31.3448 48.9746 31.3448 49.6756 31.8541L63.9679 42.2381C64.6689 42.7474 64.9622 43.6501 64.6945 44.4742L59.2353 61.2758C58.9675 62.0999 58.1996 62.6578 57.3332 62.6578H39.6668C38.8004 62.6578 38.0325 62.0999 37.7647 61.2758L32.3055 44.4742C32.0378 43.6501 32.3311 42.7474 33.0321 42.2381L47.3244 31.8541Z" fill="#1f283f"/>
</svg>
